# 3ds Max Wavefront OBJ Exporter v0.97b - (c)2007 guruware
# File Created: 15.04.2019 18:03:46

mtllib arrow.mtl

#
# object Box001
#

v  -37.4862 1.1065 -28.7362
v  -37.4862 1.1065 -47.1828
v  -38.4858 1.1355 -47.1828
v  -38.4858 1.1355 -28.7362
v  -37.5152 0.1069 -28.7362
v  -38.5148 0.1359 -28.7362
v  -38.5148 0.1359 -47.1828
v  -37.5152 0.1069 -47.1828
# 8 vertices

vn 0.0290 0.9996 -0.0000
vn -0.0290 -0.9996 -0.0000
vn 0.0000 0.0000 1.0000
vn -0.9996 0.0290 -0.0000
vn 0.0000 0.0000 -1.0000
vn 0.9996 -0.0290 -0.0000
# 6 vertex normals

vt 1.0000 0.0000 0.0000
vt 1.0000 1.0000 0.0000
vt 0.0000 1.0000 0.0000
vt 0.0000 0.0000 0.0000
# 4 texture coords

g Box001
usemtl wire_135006006
s 2
f 1/1/1 2/2/1 3/3/1 4/4/1 
s 4
f 5/4/2 6/1/2 7/2/2 8/3/2 
s 8
f 1/4/3 4/1/3 6/2/3 5/3/3 
s 16
f 4/4/4 3/1/4 7/2/4 6/3/4 
s 32
f 3/4/5 2/1/5 8/2/5 7/3/5 
s 64
f 2/4/6 1/1/6 5/2/6 8/3/6 
# 6 polygons

#
# object Pyramid001
#

v  -38.1256 0.5022 -54.3969
v  -37.6096 -2.3988 -46.8220
v  -38.8091 -2.3639 -46.8220
v  -38.6417 3.4032 -46.8220
v  -37.4422 3.3684 -46.8220
v  -38.1256 0.5022 -46.8220
# 6 vertices

vn -0.0271 -0.9341 -0.3559
vn -0.9965 0.0289 -0.0790
vn 0.0271 0.9341 -0.3559
vn 0.9965 -0.0289 -0.0790
vn -0.0000 -0.0000 1.0000
# 5 vertex normals

vt 0.5000 1.0000 0.0000
vt 0.0000 0.0000 0.0000
vt 1.0000 0.0000 0.0000
vt 0.3960 0.0000 0.0000
vt 1.3960 0.0000 0.0000
vt 0.0000 1.0000 0.0000
vt 0.5000 0.5000 0.0000
vt 1.0000 1.0000 0.0000
# 8 texture coords

g Pyramid001
usemtl wire_135006006
s 4
f 9/5/7 10/6/7 11/7/7 
s 2
f 9/5/8 11/8/8 12/9/8 
s 16
f 9/5/9 12/6/9 13/7/9 
s 32
f 9/5/10 13/8/10 10/9/10 
s 8
f 10/10/11 14/11/11 11/12/11 
f 11/12/11 14/11/11 12/7/11 
f 12/7/11 14/11/11 13/6/11 
f 13/6/11 14/11/11 10/10/11 
# 0 polygons - 8 triangles

